<svg width="334" height="337" viewBox="0 0 334 337" fill="none" xmlns="http://www.w3.org/2000/svg">
<mask id="mask0_175_1237" style="mask-type:alpha" maskUnits="userSpaceOnUse" x="0" y="0" width="334" height="337">
<path d="M0.5 293.5C0.777078 317.329 20.1726 336.5 44.0029 336.5H175C226.667 336.5 266 322.167 293 293.5C320 264.5 333.5 223.833 333.5 171.5C333.5 118.833 320 78.1667 293 49.5C266 20.8333 226.667 0 175 0H23.5V39C23.5 62.196 42.304 81 65.5 81H182.5C207.167 81 224.333 88.5 234 103.5C243.667 118.167 248.5 140.833 248.5 171.5C248.5 202.167 243.667 224.5 234 239.5C224.333 254.167 207.167 257 182.5 257H137.5H96.5H59.5H0.5V293.5Z" fill="white"/>
</mask>
<g mask="url(#mask0_175_1237)">
<rect x="20.5889" y="-14.4062" width="10.6983" height="406.73" fill="url(#paint0_linear_175_1237)"/>
<rect x="-12.251" y="-12.7871" width="28.134" height="406.787" fill="url(#paint1_linear_175_1237)"/>
<rect x="45.3418" y="-15" width="7.13219" height="406.73" fill="url(#paint2_linear_175_1237)"/>
<rect x="36.6621" y="-15" width="7.13219" height="406.73" fill="url(#paint3_linear_175_1237)"/>
<rect x="69.0381" y="-15" width="12.1128" height="406.485" fill="url(#paint4_linear_175_1237)"/>
<rect x="319.772" y="-14.6504" width="22.8713" height="406.274" fill="url(#paint5_linear_175_1237)"/>
<rect x="143" y="-13" width="7.78678" height="406.485" fill="url(#paint6_linear_175_1237)"/>
<rect x="104" y="-14" width="14" height="407" fill="url(#paint7_linear_175_1237)"/>
<rect x="264.377" y="-15" width="12.1128" height="406.485" fill="url(#paint8_linear_175_1237)"/>
<rect x="237.449" y="-15" width="7.78678" height="406.485" fill="url(#paint9_linear_175_1237)"/>
<rect x="166.52" y="-15" width="3.46079" height="406.485" fill="url(#paint10_linear_175_1237)"/>
<rect x="119" y="-13" width="3.46079" height="406.485" fill="url(#paint11_linear_175_1237)"/>
<rect x="127" y="-14" width="2" height="406" fill="url(#paint12_linear_175_1237)"/>
<rect x="58.8828" y="-15" width="3.46079" height="406.485" fill="url(#paint13_linear_175_1237)"/>
<rect x="95.5908" y="-15" width="3.46079" height="406.485" fill="url(#paint14_linear_175_1237)"/>
<rect x="84.9121" y="-15" width="3.46079" height="406.485" fill="url(#paint15_linear_175_1237)"/>
<rect x="175.671" y="-15" width="12.1128" height="406.485" fill="url(#paint16_linear_175_1237)"/>
<rect x="158.579" y="-12.7871" width="5.02392" height="406.787" fill="url(#paint17_linear_175_1237)"/>
<rect x="131" y="-16" width="5.02392" height="406.787" fill="url(#paint18_linear_175_1237)"/>
<rect x="194.289" y="-15" width="3.46079" height="406.485" fill="url(#paint19_linear_175_1237)"/>
<rect x="252" y="-15" width="4" height="407" fill="url(#paint20_linear_175_1237)"/>
<rect x="204.444" y="-15" width="8.65198" height="406.485" fill="url(#paint21_linear_175_1237)"/>
<rect x="282" y="-15" width="3.46079" height="406.485" fill="url(#paint22_linear_175_1237)"/>
<rect x="260" y="-14" width="3.46079" height="406.485" fill="url(#paint23_linear_175_1237)"/>
<rect x="309.385" y="-15" width="3.46079" height="406.485" fill="url(#paint24_linear_175_1237)"/>
<rect x="286.005" y="-16" width="3.46079" height="406.485" fill="url(#paint25_linear_175_1237)"/>
<rect x="294.151" y="-15" width="8.65198" height="406.485" fill="url(#paint26_linear_175_1237)"/>
<rect x="220" y="-15" width="12" height="406" fill="url(#paint27_linear_175_1237)"/>
</g>
<defs>
<linearGradient id="paint0_linear_175_1237" x1="25.938" y1="-14.4063" x2="25.938" y2="392.324" gradientUnits="userSpaceOnUse">
<stop offset="0.557292" stop-color="#9071E7"/>
<stop offset="0.90625" stop-color="#EF8B9D"/>
</linearGradient>
<linearGradient id="paint1_linear_175_1237" x1="1.81601" y1="-12.7871" x2="1.81601" y2="394" gradientUnits="userSpaceOnUse">
<stop offset="0.557292" stop-color="#9071E7"/>
<stop offset="0.90625" stop-color="#EF8B9D"/>
</linearGradient>
<linearGradient id="paint2_linear_175_1237" x1="48.9079" y1="-15" x2="48.9079" y2="391.73" gradientUnits="userSpaceOnUse">
<stop offset="0.557292" stop-color="#9071E7"/>
<stop offset="0.90625" stop-color="#EF8B9D"/>
</linearGradient>
<linearGradient id="paint3_linear_175_1237" x1="40.2282" y1="-15" x2="40.2282" y2="391.73" gradientUnits="userSpaceOnUse">
<stop offset="0.557292" stop-color="#9071E7"/>
<stop offset="0.90625" stop-color="#EF8B9D"/>
</linearGradient>
<linearGradient id="paint4_linear_175_1237" x1="75.0945" y1="-15" x2="75.0945" y2="391.485" gradientUnits="userSpaceOnUse">
<stop offset="0.557292" stop-color="#9071E7"/>
<stop offset="0.90625" stop-color="#EF8B9D"/>
</linearGradient>
<linearGradient id="paint5_linear_175_1237" x1="331.208" y1="-14.6504" x2="331.208" y2="391.624" gradientUnits="userSpaceOnUse">
<stop offset="0.557292" stop-color="#9071E7"/>
<stop offset="0.90625" stop-color="#EF8B9D"/>
</linearGradient>
<linearGradient id="paint6_linear_175_1237" x1="146.893" y1="-13" x2="146.893" y2="393.485" gradientUnits="userSpaceOnUse">
<stop offset="0.557292" stop-color="#9071E7"/>
<stop offset="0.90625" stop-color="#EF8B9D"/>
</linearGradient>
<linearGradient id="paint7_linear_175_1237" x1="111" y1="-14" x2="111" y2="393" gradientUnits="userSpaceOnUse">
<stop offset="0.557292" stop-color="#9071E7"/>
<stop offset="0.90625" stop-color="#EF8B9D"/>
</linearGradient>
<linearGradient id="paint8_linear_175_1237" x1="270.433" y1="-15" x2="270.433" y2="391.485" gradientUnits="userSpaceOnUse">
<stop offset="0.557292" stop-color="#9071E7"/>
<stop offset="0.90625" stop-color="#EF8B9D"/>
</linearGradient>
<linearGradient id="paint9_linear_175_1237" x1="241.343" y1="-15" x2="241.343" y2="391.485" gradientUnits="userSpaceOnUse">
<stop offset="0.557292" stop-color="#9071E7"/>
<stop offset="0.90625" stop-color="#EF8B9D"/>
</linearGradient>
<linearGradient id="paint10_linear_175_1237" x1="168.25" y1="-15" x2="168.25" y2="391.485" gradientUnits="userSpaceOnUse">
<stop offset="0.557292" stop-color="#9071E7"/>
<stop offset="0.90625" stop-color="#EF8B9D"/>
</linearGradient>
<linearGradient id="paint11_linear_175_1237" x1="120.73" y1="-13" x2="120.73" y2="393.485" gradientUnits="userSpaceOnUse">
<stop offset="0.557292" stop-color="#9071E7"/>
<stop offset="0.90625" stop-color="#EF8B9D"/>
</linearGradient>
<linearGradient id="paint12_linear_175_1237" x1="128" y1="-14" x2="128" y2="392" gradientUnits="userSpaceOnUse">
<stop offset="0.557292" stop-color="#9071E7"/>
<stop offset="0.90625" stop-color="#EF8B9D"/>
</linearGradient>
<linearGradient id="paint13_linear_175_1237" x1="60.6132" y1="-15" x2="60.6132" y2="391.485" gradientUnits="userSpaceOnUse">
<stop offset="0.557292" stop-color="#9071E7"/>
<stop offset="0.90625" stop-color="#EF8B9D"/>
</linearGradient>
<linearGradient id="paint14_linear_175_1237" x1="97.3212" y1="-15" x2="97.3212" y2="391.485" gradientUnits="userSpaceOnUse">
<stop offset="0.557292" stop-color="#9071E7"/>
<stop offset="0.90625" stop-color="#EF8B9D"/>
</linearGradient>
<linearGradient id="paint15_linear_175_1237" x1="86.6425" y1="-15" x2="86.6425" y2="391.485" gradientUnits="userSpaceOnUse">
<stop offset="0.557292" stop-color="#9071E7"/>
<stop offset="0.90625" stop-color="#EF8B9D"/>
</linearGradient>
<linearGradient id="paint16_linear_175_1237" x1="181.727" y1="-15" x2="181.727" y2="391.485" gradientUnits="userSpaceOnUse">
<stop offset="0.557292" stop-color="#9071E7"/>
<stop offset="0.90625" stop-color="#EF8B9D"/>
</linearGradient>
<linearGradient id="paint17_linear_175_1237" x1="161.091" y1="-12.7871" x2="161.091" y2="394" gradientUnits="userSpaceOnUse">
<stop offset="0.557292" stop-color="#9071E7"/>
<stop offset="0.90625" stop-color="#EF8B9D"/>
</linearGradient>
<linearGradient id="paint18_linear_175_1237" x1="133.512" y1="-16" x2="133.512" y2="390.787" gradientUnits="userSpaceOnUse">
<stop offset="0.557292" stop-color="#9071E7"/>
<stop offset="0.90625" stop-color="#EF8B9D"/>
</linearGradient>
<linearGradient id="paint19_linear_175_1237" x1="196.019" y1="-15" x2="196.019" y2="391.485" gradientUnits="userSpaceOnUse">
<stop offset="0.557292" stop-color="#9071E7"/>
<stop offset="0.90625" stop-color="#EF8B9D"/>
</linearGradient>
<linearGradient id="paint20_linear_175_1237" x1="254" y1="-15" x2="254" y2="392" gradientUnits="userSpaceOnUse">
<stop offset="0.557292" stop-color="#9071E7"/>
<stop offset="0.90625" stop-color="#EF8B9D"/>
</linearGradient>
<linearGradient id="paint21_linear_175_1237" x1="208.77" y1="-15" x2="208.77" y2="391.485" gradientUnits="userSpaceOnUse">
<stop offset="0.557292" stop-color="#9071E7"/>
<stop offset="0.90625" stop-color="#EF8B9D"/>
</linearGradient>
<linearGradient id="paint22_linear_175_1237" x1="283.73" y1="-15" x2="283.73" y2="391.485" gradientUnits="userSpaceOnUse">
<stop offset="0.557292" stop-color="#9071E7"/>
<stop offset="0.90625" stop-color="#EF8B9D"/>
</linearGradient>
<linearGradient id="paint23_linear_175_1237" x1="261.73" y1="-14" x2="261.73" y2="392.485" gradientUnits="userSpaceOnUse">
<stop offset="0.557292" stop-color="#9071E7"/>
<stop offset="0.90625" stop-color="#EF8B9D"/>
</linearGradient>
<linearGradient id="paint24_linear_175_1237" x1="311.115" y1="-15" x2="311.115" y2="391.485" gradientUnits="userSpaceOnUse">
<stop offset="0.557292" stop-color="#9071E7"/>
<stop offset="0.90625" stop-color="#EF8B9D"/>
</linearGradient>
<linearGradient id="paint25_linear_175_1237" x1="287.735" y1="-16" x2="287.735" y2="390.485" gradientUnits="userSpaceOnUse">
<stop offset="0.557292" stop-color="#9071E7"/>
<stop offset="0.90625" stop-color="#EF8B9D"/>
</linearGradient>
<linearGradient id="paint26_linear_175_1237" x1="298.477" y1="-15" x2="298.477" y2="391.485" gradientUnits="userSpaceOnUse">
<stop offset="0.557292" stop-color="#9071E7"/>
<stop offset="0.90625" stop-color="#EF8B9D"/>
</linearGradient>
<linearGradient id="paint27_linear_175_1237" x1="226" y1="-15" x2="226" y2="391" gradientUnits="userSpaceOnUse">
<stop offset="0.557292" stop-color="#9071E7"/>
<stop offset="0.90625" stop-color="#EF8B9D"/>
</linearGradient>
</defs>
</svg>
